<svg width="145" height="138" viewBox="0 0 145 138" fill="none" xmlns="http://www.w3.org/2000/svg">
<path d="M144.661 0H121.466L108.496 12.7553L95.5251 0H72.0253V19.328L86.7661 33.824L72.0253 48.3199V67.6479H95.5251L108.496 54.8927L121.466 67.6479H144.661V48.3199L129.92 33.824L144.661 19.328V0ZM42.7269 35.032C42.725 43.1859 38.5592 46.5079 33.1176 46.5079H33.1133C27.6718 46.5079 23.1946 43.1859 23.1946 35.032C23.1946 26.878 23.1946 0 23.1946 0H0L0.00122082 35.032C0.0640904 56.6606 13.5096 66.6888 30.5686 67.5821C31.4091 67.6262 34.6668 67.6262 35.5079 67.5821C52.5248 66.6906 65.9215 56.5494 65.9215 35.032V0H42.7269V35.032Z" fill="#00B6E0"/>
<path d="M121.466 0L121.468 19.328H144.661V0H121.466ZM72.0271 19.328H95.2199V0H72.0253L72.0271 19.328ZM121.468 67.6479H144.661V48.3199H121.466L121.468 67.6479ZM72.0271 67.6479H94.6095V48.3199H72.0253L72.0271 67.6479ZM42.7269 19.328H65.9215V0H42.7269V19.328ZM0.00183116 19.328H23.1946V0H0L0.00183116 19.328Z" fill="#007BBF"/>
<path d="M37.2946 69.78H6.72656V137.428H29.9212V121.724H37.2946C58.2124 121.724 67.2412 110.494 67.2412 95.752C67.2419 81.0102 58.2124 69.78 37.2946 69.78ZM37.2946 102.396H29.9212V89.108H37.2946C41.057 89.108 44.6686 91.675 44.6686 95.752C44.6686 99.829 41.057 102.396 37.2946 102.396ZM114.765 69.78V94.544H95.8426V69.78H72.648V137.428H95.8426V113.872H114.765V137.428H137.959V69.78H114.765Z" fill="#FF422E"/>
<path d="M72.648 113.872H95.8426V94.544H72.648V113.872ZM114.765 94.544V113.872H137.959V94.544H114.765ZM6.72656 121.724H29.9212V102.396H6.72656V121.724ZM6.72656 89.108H29.9212V69.78H6.72656V89.108Z" fill="#CE0000"/>
</svg>
